<?xml version="1.0" encoding="utf-8"?>
<!-- Generator: Adobe Illustrator 16.0.0, SVG Export Plug-In . SVG Version: 6.00 Build 0)  -->
<!DOCTYPE svg PUBLIC "-//W3C//DTD SVG 1.1//EN" "http://www.w3.org/Graphics/SVG/1.1/DTD/svg11.dtd">
<svg version="1.1" id="Livello_1" xmlns="http://www.w3.org/2000/svg" xmlns:xlink="http://www.w3.org/1999/xlink" x="0px" y="0px"
	 width="80px" height="27px" viewBox="-47.186 320.435 688.739 179.81"
	 enable-background="new -47.186 330.435 688.739 179.81" xml:space="preserve">
<path fill="#61BD81" d="M4.491,477.839c-7.343,0-14.156-1.059-20.438-3.176c-6.283-2.117-11.755-5.295-16.413-9.531
	c-4.66-4.233-8.299-9.531-10.907-15.885c-2.614-6.354-3.919-13.766-3.919-22.236v-94.882h15.249v93.824
	c0,12.85,3.246,22.447,9.743,28.803c6.49,6.354,15.387,9.531,26.685,9.531c11.152,0,20.015-3.178,26.578-9.531
	c6.567-6.354,9.851-15.953,9.851-28.803v-93.824h15.248v94.882c0,8.472-1.308,15.883-3.918,22.236
	c-2.612,6.354-6.247,11.647-10.908,15.885c-4.656,4.236-10.132,7.414-16.41,9.531C18.646,476.781,11.832,477.839,4.491,477.839"/>
<path fill="#61BD81" d="M168.414,332.128h48.924c6.776,0,12.636,0.92,17.578,2.761c4.94,1.841,9.034,4.386,12.284,7.639
	c3.245,3.256,5.683,7.039,7.308,11.354c1.621,4.315,2.436,8.879,2.436,13.69c0,7.214-1.555,13.3-4.658,18.251
	c-3.106,4.95-7.768,8.418-13.979,10.396c9.317,2.258,16.59,6.698,21.813,13.323c5.223,6.625,7.836,14.734,7.836,24.316
	c0,5.92-0.92,11.45-2.753,16.6c-1.836,5.145-4.659,9.619-8.473,13.426c-3.812,3.808-8.577,6.803-14.295,8.988
	c-5.72,2.184-12.391,3.275-20.016,3.275h-54.007L168.414,332.128L168.414,332.128z M218.397,391.218
	c8.328,0,14.295-2.128,17.896-6.384c3.602-4.255,5.4-9.715,5.4-16.383c0-3.264-0.46-6.278-1.377-9.045
	c-0.92-2.767-2.402-5.175-4.447-7.234c-2.049-2.055-4.658-3.648-7.836-4.785c-3.178-1.135-7.096-1.703-11.756-1.703h-32.614v45.534
	H218.397L218.397,391.218z M221.361,462.591c5.508,0,10.236-0.742,14.189-2.225c3.951-1.482,7.165-3.527,9.638-6.144
	c2.468-2.608,4.306-5.682,5.506-9.213c1.198-3.524,1.802-7.412,1.802-11.646c0-8.476-2.577-15.462-7.729-20.968
	c-5.156-5.508-13.237-8.262-24.25-8.262h-36.853v58.454h37.697V462.591z"/>
<rect x="372.155" y="332.128" fill="#61BD81" width="15.46" height="144.016"/>
<path fill="#61BD81" d="M575.051,510.244h-14.824v-32.615c-9.319-0.848-18.039-3.246-26.156-7.201
	c-8.121-3.951-15.181-9.139-21.179-15.565c-6.005-6.425-10.732-13.941-14.191-22.558c-3.461-8.606-5.188-18-5.188-28.166
	c0-10.871,1.938-20.825,5.824-29.862c3.882-9.033,9.141-16.801,15.776-23.297c6.635-6.493,14.472-11.542,23.509-15.144
	c9.034-3.602,18.64-5.4,28.806-5.4c10.305,0,19.938,1.8,28.909,5.4c8.964,3.602,16.801,8.649,23.508,15.144
	c6.705,6.496,11.999,14.264,15.886,23.297c3.881,9.037,5.823,18.991,5.823,29.862c0,10.166-1.726,19.56-5.173,28.166
	c-3.447,8.615-8.164,16.133-14.146,22.558c-5.981,6.428-13.019,11.58-21.108,15.463c-8.095,3.885-16.783,6.246-26.072,7.094v32.826
	L575.051,510.244L575.051,510.244z M560.226,433.576h14.824v30.498c7.452-0.849,14.27-2.931,20.458-6.248
	c6.185-3.316,11.523-7.623,16.024-12.918c4.5-5.297,7.979-11.4,10.441-18.32c2.462-6.917,3.69-14.471,3.69-22.663
	c0-8.609-1.447-16.552-4.342-23.825c-2.896-7.271-6.956-13.587-12.178-18.955c-5.226-5.363-11.367-9.563-18.426-12.603
	c-7.062-3.034-14.825-4.553-23.297-4.553c-8.333,0-16.063,1.519-23.19,4.553c-7.132,3.038-13.272,7.238-18.426,12.603
	c-5.157,5.368-9.181,11.686-12.072,18.955c-2.896,7.273-4.342,15.216-4.342,23.825c0,8.191,1.271,15.746,3.812,22.663
	c2.542,6.92,6.036,13.023,10.484,18.32c4.447,5.295,9.773,9.602,15.99,12.918c6.212,3.317,13.058,5.399,20.544,6.248v-30.498
	H560.226z"/>
</svg>
