<?xml version="1.0" encoding="utf-8"?>
<!-- Generator: Adobe Illustrator 16.0.0, SVG Export Plug-In . SVG Version: 6.00 Build 0)  -->
<!DOCTYPE svg PUBLIC "-//W3C//DTD SVG 1.1//EN" "http://www.w3.org/Graphics/SVG/1.1/DTD/svg11.dtd">
<svg version="1.1" id="Livello_1" xmlns="http://www.w3.org/2000/svg" xmlns:xlink="http://www.w3.org/1999/xlink" x="0px" y="0px"
	 width="688.738px" height="179.81px" viewBox="-46.578 330.435 688.738 179.81"
	 enable-background="new -46.578 330.435 688.738 179.81" xml:space="preserve">
<path fill="#4A4A4A" d="M5.098,477.839c-7.343,0-14.156-1.059-20.438-3.176c-6.283-2.117-11.754-5.295-16.413-9.531
	c-4.66-4.233-8.297-9.531-10.907-15.885c-2.614-6.354-3.919-13.766-3.919-22.236v-94.882h15.249v93.824
	c0,12.85,3.246,22.447,9.743,28.803c6.491,6.354,15.387,9.531,26.685,9.531c11.152,0,20.015-3.178,26.579-9.531
	c6.566-6.354,9.85-15.953,9.85-28.803v-93.824h15.248v94.882c0,8.472-1.308,15.883-3.918,22.236
	c-2.613,6.354-6.247,11.647-10.907,15.885c-4.658,4.236-10.133,7.414-16.412,9.531C19.253,476.781,12.438,477.839,5.098,477.839"/>
<path fill="#4A4A4A" d="M169.021,332.128h48.924c6.777,0,12.635,0.92,17.578,2.761c4.94,1.841,9.034,4.386,12.284,7.639
	c3.246,3.256,5.682,7.039,7.307,11.354c1.621,4.315,2.436,8.879,2.436,13.69c0,7.214-1.555,13.3-4.658,18.251
	c-3.107,4.95-7.768,8.418-13.979,10.396c9.317,2.258,16.589,6.698,21.813,13.323c5.222,6.625,7.836,14.734,7.836,24.316
	c0,5.92-0.92,11.45-2.753,16.6c-1.836,5.145-4.659,9.619-8.473,13.426c-3.812,3.808-8.577,6.803-14.295,8.988
	c-5.719,2.184-12.391,3.275-20.016,3.275H169.02L169.021,332.128L169.021,332.128z M219.004,391.218
	c8.328,0,14.295-2.128,17.896-6.384c3.602-4.255,5.401-9.715,5.401-16.383c0-3.264-0.46-6.278-1.377-9.045
	c-0.92-2.767-2.402-5.175-4.447-7.234c-2.048-2.055-4.659-3.648-7.836-4.785c-3.178-1.135-7.096-1.703-11.754-1.703H184.27v45.534
	H219.004L219.004,391.218z M221.968,462.591c5.508,0,10.236-0.742,14.19-2.225c3.951-1.482,7.164-3.527,9.637-6.144
	c2.469-2.608,4.306-5.682,5.508-9.213c1.197-3.524,1.8-7.412,1.8-11.646c0-8.476-2.578-15.462-7.73-20.968
	c-5.155-5.508-13.236-8.262-24.25-8.262H184.27v58.454h37.697V462.591z"/>
<rect x="372.762" y="332.128" fill="#4A4A4A" width="15.461" height="144.016"/>
<path fill="#4A4A4A" d="M575.656,510.244h-14.823v-32.615c-9.318-0.848-18.038-3.246-26.155-7.201
	c-8.121-3.951-15.182-9.139-21.182-15.565c-6.004-6.425-10.729-13.941-14.188-22.558c-3.462-8.606-5.189-18-5.189-28.166
	c0-10.871,1.939-20.825,5.824-29.862c3.883-9.033,9.143-16.801,15.778-23.297c6.635-6.493,14.471-11.542,23.509-15.144
	c9.034-3.602,18.639-5.4,28.805-5.4c10.305,0,19.94,1.8,28.908,5.4c8.965,3.602,16.801,8.649,23.508,15.144
	c6.705,6.496,12,14.264,15.887,23.297c3.882,9.037,5.822,18.991,5.822,29.862c0,10.166-1.724,19.56-5.173,28.166
	c-3.448,8.615-8.163,16.133-14.146,22.558c-5.982,6.428-13.02,11.58-21.108,15.463c-8.094,3.885-16.784,6.246-26.073,7.094v32.826
	L575.656,510.244L575.656,510.244z M560.831,433.576h14.824v30.498c7.452-0.849,14.271-2.931,20.459-6.248
	c6.187-3.316,11.524-7.623,16.025-12.918c4.5-5.297,7.979-11.4,10.439-18.32c2.461-6.917,3.692-14.471,3.692-22.663
	c0-8.609-1.448-16.552-4.342-23.825c-2.896-7.271-6.956-13.587-12.179-18.955c-5.227-5.363-11.366-9.563-18.426-12.603
	c-7.062-3.034-14.824-4.553-23.297-4.553c-8.334,0-16.062,1.519-23.189,4.553c-7.135,3.038-13.274,7.238-18.428,12.603
	c-5.154,5.368-9.181,11.686-12.07,18.955c-2.896,7.273-4.344,15.216-4.344,23.825c0,8.191,1.271,15.746,3.812,22.663
	c2.542,6.92,6.036,13.023,10.482,18.32c4.446,5.295,9.776,9.602,15.989,12.918c6.213,3.317,13.061,5.399,20.545,6.248v-30.498
	H560.831z"/>
</svg>
